ffmpeg version 4.4.2-0ubuntu0.22.04.1 Copyright (c) 2000-2021 the FFmpeg developers
  built with gcc 11 (Ubuntu 11.2.0-19ubuntu1)
  configuration: --prefix=/usr --extra-version=0ubuntu0.22.04.1 --toolchain=hardened --libdir=/usr/lib/x86_64-linux-gnu --incdir=/usr/include/x86_64-linux-gnu --arch=amd64 --enable-gpl --disable-stripping --enable-gnutls --enable-ladspa --enable-libaom --enable-libass --enable-libbluray --enable-libbs2b --enable-libcaca --enable-libcdio --enable-libcodec2 --enable-libdav1d --enable-libflite --enable-libfontconfig --enable-libfreetype --enable-libfribidi --enable-libgme --enable-libgsm --enable-libjack --enable-libmp3lame --enable-libmysofa --enable-libopenjpeg --enable-libopenmpt --enable-libopus --enable-libpulse --enable-librabbitmq --enable-librubberband --enable-libshine --enable-libsnappy --enable-libsoxr --enable-libspeex --enable-libsrt --enable-libssh --enable-libtheora --enable-libtwolame --enable-libvidstab --enable-libvorbis --enable-libvpx --enable-libwebp --enable-libx265 --enable-libxml2 --enable-libxvid --enable-libzimg --enable-libzmq --enable-libzvbi --enable-lv2 --enable-omx --enable-openal --enable-opencl --enable-opengl --enable-sdl2 --enable-pocketsphinx --enable-librsvg --enable-libmfx --enable-libdc1394 --enable-libdrm --enable-libiec61883 --enable-chromaprint --enable-frei0r --enable-libx264 --enable-shared
  libavutil      56. 70.100 / 56. 70.100
  libavcodec     58.134.100 / 58.134.100
  libavformat    58. 76.100 / 58. 76.100
  libavdevice    58. 13.100 / 58. 13.100
  libavfilter     7.110.100 /  7.110.100
  libswscale      5.  9.100 /  5.  9.100
  libswresample   3.  9.100 /  3.  9.100
  libpostproc    55.  9.100 / 55.  9.100
Input #0, mov,mp4,m4a,3gp,3g2,mj2, from 'https://vimleshs3001.s3.ap-south-1.amazonaws.com/Media/original/apple1_20231019181142.MP4?X-Amz-Algorithm=AWS4-HMAC-SHA256&X-Amz-Content-Sha256=UNSIGNED-PAYLOAD&X-Amz-Credential=AKIAZ7U7KISHCWRVXJF6%2F20240121%2Fap-south-1%2Fs3%2Faws4_request&X-Amz-Date=20240121T121700Z&X-Amz-Expires=1000&X-Amz-Signature=41b17a79331eebbcbe56701615e662b5bea03a7e575c5a8a9cb196085c6085f4&X-Amz-SignedHeaders=host&x-id=GetObject':
  Metadata:
    major_brand     : isom
    minor_version   : 512
    compatible_brands: isomiso2avc1mp41
    creation_time   : 1970-01-01T00:00:00.000000Z
    encoder         : Lavf53.3.0
  Duration: 00:00:17.81, start: 0.000000, bitrate: 7499 kb/s
  Stream #0:0(eng): Video: h264 (High) (avc1 / 0x31637661), yuv420p, 1920x1080 [SAR 1:1 DAR 16:9], 7342 kb/s, 25 fps, 25 tbr, 25 tbn, 50 tbc (default)
    Metadata:
      creation_time   : 1970-01-01T00:00:00.000000Z
      handler_name    : VideoHandler
      vendor_id       : [0][0][0][0]
  Stream #0:1(eng): Audio: mp3 (mp4a / 0x6134706D), 48000 Hz, stereo, fltp, 256 kb/s (default)
    Metadata:
      creation_time   : 1970-01-01T00:00:00.000000Z
      handler_name    : SoundHandler
      vendor_id       : [0][0][0][0]
Stream mapping:
  Stream #0:0 -> #0:0 (h264 (native) -> h264 (libx264))
  Stream #0:1 -> #0:1 (mp3 (mp3float) -> aac (native))
Press [q] to stop, [?] for help
[libx264 @ 0x55c826aa98c0] VBV maxrate specified, but no bufsize, ignored
[libx264 @ 0x55c826aa98c0] using SAR=10/9
[libx264 @ 0x55c826aa98c0] using cpu capabilities: MMX2 SSE2Fast SSSE3 SSE4.2 AVX BMI2
[libx264 @ 0x55c826aa98c0] profile High, level 2.1, 4:2:0, 8-bit
[libx264 @ 0x55c826aa98c0] 264 - core 163 r3060 5db6aa6 - H.264/MPEG-4 AVC codec - Copyleft 2003-2021 - http://www.videolan.org/x264.html - options: cabac=1 ref=3 deblock=1:0:0 analyse=0x3:0x113 me=hex subme=7 psy=1 psy_rd=1.00:0.00 mixed_ref=1 me_range=16 chroma_me=1 trellis=1 8x8dct=1 cqm=0 deadzone=21,11 fast_pskip=1 chroma_qp_offset=-2 threads=4 lookahead_threads=1 sliced_threads=0 nr=0 decimate=1 interlaced=0 bluray_compat=0 constrained_intra=0 bframes=3 b_pyramid=2 b_adapt=1 b_bias=0 direct=1 weightb=1 open_gop=0 weightp=2 keyint=250 keyint_min=25 scenecut=40 intra_refresh=0 rc_lookahead=40 rc=abr mbtree=1 bitrate=750 ratetol=1.0 qcomp=0.60 qpmin=0 qpmax=69 qpstep=4 ip_ratio=1.40 aq=1:1.00
Output #0, mp4, to './log/apple1_20231019181142_proxy1.mp4':
  Metadata:
    major_brand     : isom
    minor_version   : 512
    compatible_brands: isomiso2avc1mp41
    encoder         : Lavf58.76.100
  Stream #0:0(eng): Video: h264 (avc1 / 0x31637661), yuv420p(tv, progressive), 480x300 [SAR 10:9 DAR 16:9], q=2-31, 750 kb/s, 25 fps, 12800 tbn (default)
    Metadata:
      creation_time   : 1970-01-01T00:00:00.000000Z
      handler_name    : VideoHandler
      vendor_id       : [0][0][0][0]
      encoder         : Lavc58.134.100 libx264
    Side data:
      cpb: bitrate max/min/avg: 750000/0/750000 buffer size: 0 vbv_delay: N/A
  Stream #0:1(eng): Audio: aac (LC) (mp4a / 0x6134706D), 48000 Hz, stereo, fltp, 128 kb/s (default)
    Metadata:
      creation_time   : 1970-01-01T00:00:00.000000Z
      handler_name    : SoundHandler
      vendor_id       : [0][0][0][0]
      encoder         : Lavc58.134.100 aac
frame=    1 fps=0.0 q=0.0 size=       0kB time=00:00:00.04 bitrate=   9.0kbits/s speed=0.132x    frame=   14 fps=0.0 q=0.0 size=       0kB time=00:00:00.59 bitrate=   0.6kbits/s speed=0.702x    frame=   20 fps= 13 q=0.0 size=       0kB time=00:00:00.83 bitrate=   0.5kbits/s speed=0.524x    frame=   25 fps= 12 q=0.0 size=       0kB time=00:00:01.02 bitrate=   0.4kbits/s speed=0.49x    frame=   27 fps= 10 q=0.0 size=       0kB time=00:00:01.13 bitrate=   0.3kbits/s speed=0.427x    frame=   34 fps= 11 q=0.0 size=       0kB time=00:00:01.38 bitrate=   0.3kbits/s speed=0.438x    frame=   40 fps= 11 q=0.0 size=       0kB time=00:00:01.62 bitrate=   0.2kbits/s speed=0.436x    frame=   46 fps= 11 q=0.0 size=       0kB time=00:00:01.87 bitrate=   0.2kbits/s speed=0.437x    frame=   49 fps=9.9 q=29.0 size=       0kB time=00:00:01.98 bitrate=   0.2kbits/s speed=0.401x    frame=   54 fps=9.8 q=30.0 size=       0kB time=00:00:02.19 bitrate=   0.2kbits/s speed=0.401x    frame=   59 fps=9.8 q=31.0 size=       0kB time=00:00:02.38 bitrate=   0.2kbits/s speed=0.399x    frame=   62 fps=9.3 q=31.0 size=       0kB time=00:00:02.51 bitrate=   0.2kbits/s speed=0.376x    frame=   64 fps=8.8 q=31.0 size=       0kB time=00:00:02.58 bitrate=   0.1kbits/s speed=0.354x    frame=   66 fps=8.5 q=31.0 size=       0kB time=00:00:02.68 bitrate=   0.1kbits/s speed=0.344x    frame=   69 fps=8.2 q=27.0 size=       0kB time=00:00:02.81 bitrate=   0.1kbits/s speed=0.336x    frame=   73 fps=8.1 q=31.0 size=       0kB time=00:00:02.94 bitrate=   0.1kbits/s speed=0.327x    frame=   78 fps=8.2 q=31.0 size=       0kB time=00:00:03.15 bitrate=   0.1kbits/s speed=0.331x    frame=   82 fps=8.1 q=31.0 size=       0kB time=00:00:03.30 bitrate=   0.1kbits/s speed=0.328x    frame=   88 fps=8.3 q=31.0 size=       0kB time=00:00:03.54 bitrate=   0.1kbits/s speed=0.333x    frame=   93 fps=8.3 q=30.0 size=       0kB time=00:00:03.77 bitrate=   0.1kbits/s speed=0.335x    frame=   98 fps=8.3 q=30.0 size=       0kB time=00:00:03.96 bitrate=   0.1kbits/s speed=0.336x    frame=  102 fps=8.1 q=30.0 size=       0kB time=00:00:04.11 bitrate=   0.1kbits/s speed=0.329x    frame=  104 fps=7.9 q=30.0 size=       0kB time=00:00:04.20 bitrate=   0.1kbits/s speed=0.319x    frame=  105 fps=7.5 q=30.0 size=       0kB time=00:00:04.24 bitrate=   0.1kbits/s speed=0.303x    frame=  107 fps=7.3 q=30.0 size=       0kB time=00:00:04.30 bitrate=   0.1kbits/s speed=0.296x    frame=  110 fps=7.2 q=30.0 size=       0kB time=00:00:04.43 bitrate=   0.1kbits/s speed=0.288x    frame=  112 fps=7.0 q=29.0 size=     256kB time=00:00:04.50 bitrate= 466.0kbits/s speed=0.282x    frame=  114 fps=5.5 q=29.0 size=     256kB time=00:00:04.60 bitrate= 455.2kbits/s speed=0.221x    frame=  115 fps=5.3 q=29.0 size=     256kB time=00:00:04.65 bitrate= 451.0kbits/s speed=0.215x    frame=  116 fps=5.2 q=29.0 size=     256kB time=00:00:04.67 bitrate= 449.0kbits/s speed=0.211x    frame=  117 fps=5.2 q=29.0 size=     256kB time=00:00:04.73 bitrate= 442.9kbits/s speed=0.209x    frame=  118 fps=5.1 q=29.0 size=     256kB time=00:00:04.75 bitrate= 440.9kbits/s speed=0.204x    frame=  119 fps=5.0 q=29.0 size=     256kB time=00:00:04.80 bitrate= 437.0kbits/s speed= 0.2x    frame=  121 fps=4.9 q=29.0 size=     256kB time=00:00:04.86 bitrate= 431.2kbits/s speed=0.197x    frame=  123 fps=4.9 q=29.0 size=     256kB time=00:00:04.97 bitrate= 422.0kbits/s speed=0.196x    frame=  126 fps=4.9 q=29.0 size=     256kB time=00:00:05.07 bitrate= 413.1kbits/s speed=0.196x    frame=  128 fps=4.8 q=29.0 size=     256kB time=00:00:05.16 bitrate= 406.3kbits/s speed=0.193x    frame=  132 fps=4.8 q=29.0 size=     256kB time=00:00:05.33 bitrate= 393.3kbits/s speed=0.195x    frame=  136 fps=4.9 q=29.0 size=     256kB time=00:00:05.46 bitrate= 384.1kbits/s speed=0.196x    frame=  139 fps=4.9 q=29.0 size=     256kB time=00:00:05.61 bitrate= 373.8kbits/s speed=0.198x    frame=  145 fps=5.0 q=28.0 size=     256kB time=00:00:05.82 bitrate= 360.2kbits/s speed=0.201x    frame=  152 fps=5.2 q=27.0 size=     256kB time=00:00:06.12 bitrate= 342.6kbits/s speed=0.208x    frame=  158 fps=5.3 q=27.0 size=     256kB time=00:00:06.35 bitrate= 329.9kbits/s speed=0.212x    frame=  164 fps=5.4 q=26.0 size=     256kB time=00:00:06.59 bitrate= 318.2kbits/s speed=0.216x    frame=  171 fps=5.5 q=26.0 size=     256kB time=00:00:06.89 bitrate= 304.4kbits/s speed=0.22x    frame=  174 fps=5.5 q=26.0 size=     256kB time=00:00:06.99 bitrate= 299.8kbits/s speed=0.22x    frame=  178 fps=5.4 q=24.0 size=     256kB time=00:00:07.14 bitrate= 293.5kbits/s speed=0.219x    frame=  181 fps=5.4 q=27.0 size=     512kB time=00:00:07.27 bitrate= 576.6kbits/s speed=0.219x    frame=  185 fps=5.5 q=27.0 size=     512kB time=00:00:07.44 bitrate= 563.4kbits/s speed=0.22x    frame=  188 fps=5.5 q=27.0 size=     512kB time=00:00:07.55 bitrate= 555.4kbits/s speed=0.219x    frame=  192 fps=5.5 q=26.0 size=     512kB time=00:00:07.72 bitrate= 543.2kbits/s speed=0.22x    frame=  195 fps=5.5 q=26.0 size=     512kB time=00:00:07.85 bitrate= 534.3kbits/s speed=0.22x    frame=  198 fps=5.4 q=26.0 size=     512kB time=00:00:07.95 bitrate= 527.1kbits/s speed=0.216x    frame=  202 fps=5.4 q=26.0 size=     512kB time=00:00:08.10 bitrate= 517.4kbits/s speed=0.216x    frame=  205 fps=5.4 q=26.0 size=     512kB time=00:00:08.23 bitrate= 509.4kbits/s speed=0.215x    frame=  210 fps=5.4 q=26.0 size=     512kB time=00:00:08.44 bitrate= 496.5kbits/s speed=0.217x    frame=  212 fps=5.4 q=26.0 size=     512kB time=00:00:08.51 bitrate= 492.8kbits/s speed=0.215x    frame=  221 fps=5.5 q=23.0 size=     512kB time=00:00:08.87 bitrate= 472.7kbits/s speed=0.222x    frame=  230 fps=5.7 q=26.0 size=     512kB time=00:00:09.23 bitrate= 454.1kbits/s speed=0.228x    frame=  245 fps=6.0 q=27.0 size=     768kB time=00:00:09.83 bitrate= 639.8kbits/s speed=0.239x    frame=  247 fps=5.9 q=27.0 size=     768kB time=00:00:09.92 bitrate= 634.3kbits/s speed=0.238x    frame=  256 fps=6.1 q=27.0 size=     768kB time=00:00:10.26 bitrate= 613.2kbits/s speed=0.244x    frame=  264 fps=6.2 q=27.0 size=     768kB time=00:00:10.60 bitrate= 593.4kbits/s speed=0.249x    frame=  272 fps=6.3 q=27.0 size=     768kB time=00:00:10.90 bitrate= 577.2kbits/s speed=0.253x    frame=  277 fps=6.3 q=27.0 size=     768kB time=00:00:11.11 bitrate= 566.1kbits/s speed=0.254x    frame=  284 fps=6.4 q=27.0 size=     768kB time=00:00:11.39 bitrate= 552.3kbits/s speed=0.257x    frame=  286 fps=6.4 q=27.0 size=     768kB time=00:00:11.47 bitrate= 548.2kbits/s speed=0.255x    frame=  291 fps=6.4 q=27.0 size=     768kB time=00:00:11.69 bitrate= 538.2kbits/s speed=0.256x    frame=  299 fps=6.5 q=27.0 size=    1024kB time=00:00:11.98 bitrate= 699.7kbits/s speed=0.259x    frame=  303 fps=6.5 q=27.0 size=    1024kB time=00:00:12.16 bitrate= 689.9kbits/s speed=0.26x    frame=  307 fps=6.4 q=27.0 size=    1024kB time=00:00:12.30 bitrate= 681.5kbits/s speed=0.257x    frame=  310 fps=6.4 q=27.0 size=    1024kB time=00:00:12.43 bitrate= 674.5kbits/s speed=0.256x    frame=  312 fps=6.3 q=27.0 size=    1024kB time=00:00:12.52 bitrate= 669.9kbits/s speed=0.254x    frame=  315 fps=6.3 q=27.0 size=    1024kB time=00:00:12.65 bitrate= 663.1kbits/s speed=0.254x    frame=  319 fps=6.3 q=27.0 size=    1024kB time=00:00:12.80 bitrate= 655.4kbits/s speed=0.254x    frame=  325 fps=6.4 q=27.0 size=    1024kB time=00:00:13.03 bitrate= 643.6kbits/s speed=0.255x    frame=  329 fps=6.4 q=27.0 size=    1024kB time=00:00:13.20 bitrate= 635.3kbits/s speed=0.256x    frame=  332 fps=6.3 q=27.0 size=    1024kB time=00:00:13.31 bitrate= 630.2kbits/s speed=0.254x    frame=  336 fps=6.3 q=27.0 size=    1024kB time=00:00:13.48 bitrate= 622.2kbits/s speed=0.254x    frame=  342 fps=6.4 q=27.0 size=    1024kB time=00:00:13.71 bitrate= 611.6kbits/s speed=0.256x    frame=  348 fps=6.4 q=27.0 size=    1024kB time=00:00:13.97 bitrate= 600.4kbits/s speed=0.258x    frame=  355 fps=6.5 q=27.0 size=    1280kB time=00:00:14.22 bitrate= 736.9kbits/s speed=0.26x    frame=  359 fps=6.5 q=27.0 size=    1280kB time=00:00:14.40 bitrate= 728.2kbits/s speed=0.26x    frame=  364 fps=6.5 q=27.0 size=    1280kB time=00:00:14.59 bitrate= 718.6kbits/s speed=0.26x    frame=  365 fps=6.4 q=27.0 size=    1280kB time=00:00:14.63 bitrate= 716.5kbits/s speed=0.257x    frame=  367 fps=6.4 q=27.0 size=    1280kB time=00:00:14.72 bitrate= 712.4kbits/s speed=0.255x    frame=  369 fps=6.3 q=27.0 size=    1280kB time=00:00:14.80 bitrate= 708.3kbits/s speed=0.253x    frame=  371 fps=6.3 q=27.0 size=    1280kB time=00:00:14.86 bitrate= 705.2kbits/s speed=0.252x    frame=  374 fps=6.3 q=27.0 size=    1280kB time=00:00:14.99 bitrate= 699.2kbits/s speed=0.252x    frame=  377 fps=6.3 q=27.0 size=    1280kB time=00:00:15.12 bitrate= 693.3kbits/s speed=0.252x    frame=  381 fps=6.3 q=27.0 size=    1280kB time=00:00:15.29 bitrate= 685.5kbits/s speed=0.252x    frame=  385 fps=6.3 q=27.0 size=    1280kB time=00:00:15.42 bitrate= 679.9kbits/s speed=0.252x    frame=  386 fps=6.2 q=27.0 size=    1280kB time=00:00:15.48 bitrate= 677.0kbits/s speed=0.251x    frame=  389 fps=6.2 q=27.0 size=    1280kB time=00:00:15.59 bitrate= 672.4kbits/s speed=0.25x    frame=  390 fps=6.2 q=27.0 size=    1280kB time=00:00:15.63 bitrate= 670.6kbits/s speed=0.248x    frame=  396 fps=6.2 q=27.0 size=    1280kB time=00:00:15.89 bitrate= 659.8kbits/s speed=0.249x    frame=  401 fps=6.2 q=27.0 size=    1280kB time=00:00:16.08 bitrate= 651.9kbits/s speed=0.25x    frame=  408 fps=6.3 q=27.0 size=    1280kB time=00:00:16.36 bitrate= 640.9kbits/s speed=0.252x    frame=  414 fps=6.3 q=24.0 size=    1536kB time=00:00:16.59 bitrate= 758.2kbits/s speed=0.254x    frame=  422 fps=6.4 q=27.0 size=    1536kB time=00:00:16.91 bitrate= 743.8kbits/s speed=0.257x    frame=  426 fps=6.3 q=27.0 size=    1536kB time=00:00:17.08 bitrate= 736.4kbits/s speed=0.254x    frame=  428 fps=6.3 q=27.0 size=    1536kB time=00:00:17.15 bitrate= 733.6kbits/s speed=0.253x    frame=  430 fps=6.3 q=27.0 size=    1536kB time=00:00:17.23 bitrate= 730.0kbits/s speed=0.252x    frame=  433 fps=6.3 q=27.0 size=    1536kB time=00:00:17.34 bitrate= 725.5kbits/s speed=0.251x    frame=  439 fps=6.3 q=-1.0 Lsize=    1956kB time=00:00:17.79 bitrate= 900.5kbits/s speed=0.255x    
video:1662kB audio:280kB subtitle:0kB other streams:0kB global headers:0kB muxing overhead: 0.743505%
[libx264 @ 0x55c826aa98c0] frame I:11    Avg QP:21.98  size: 11646
[libx264 @ 0x55c826aa98c0] frame P:120   Avg QP:25.47  size:  6358
[libx264 @ 0x55c826aa98c0] frame B:308   Avg QP:27.37  size:  2629
[libx264 @ 0x55c826aa98c0] consecutive B-frames:  4.1%  4.1%  8.9% 82.9%
[libx264 @ 0x55c826aa98c0] mb I  I16..4:  8.2% 66.0% 25.8%
[libx264 @ 0x55c826aa98c0] mb P  I16..4:  4.0% 26.3%  9.3%  P16..4: 29.4% 17.9%  7.5%  0.0%  0.0%    skip: 5.6%
[libx264 @ 0x55c826aa98c0] mb B  I16..4:  0.7%  3.3%  1.2%  B16..8: 37.5% 15.0%  4.3%  direct: 6.3%  skip:31.8%  L0:38.0% L1:40.8% BI:21.2%
[libx264 @ 0x55c826aa98c0] final ratefactor: 22.28
[libx264 @ 0x55c826aa98c0] 8x8 transform intra:65.8% inter:72.9%
[libx264 @ 0x55c826aa98c0] coded y,uvDC,uvAC intra: 72.3% 83.6% 47.0% inter: 26.6% 27.5% 1.9%
[libx264 @ 0x55c826aa98c0] i16 v,h,dc,p: 21% 13%  4% 61%
[libx264 @ 0x55c826aa98c0] i8 v,h,dc,ddl,ddr,vr,hd,vl,hu: 23% 16% 11%  6%  8%  9%  9% 10%  8%
[libx264 @ 0x55c826aa98c0] i4 v,h,dc,ddl,ddr,vr,hd,vl,hu: 24% 16% 13%  7%  9%  9%  8%  7%  6%
[libx264 @ 0x55c826aa98c0] i8c dc,h,v,p: 46% 18% 23% 13%
[libx264 @ 0x55c826aa98c0] Weighted P-Frames: Y:5.8% UV:3.3%
[libx264 @ 0x55c826aa98c0] ref P L0: 62.5% 21.3% 11.6%  4.4%  0.2%
[libx264 @ 0x55c826aa98c0] ref B L0: 95.8%  3.3%  0.9%
[libx264 @ 0x55c826aa98c0] ref B L1: 99.0%  1.0%
[libx264 @ 0x55c826aa98c0] kb/s:774.87
[aac @ 0x55c82673d4c0] Qavg: 1077.581
